<svg xmlns="http://www.w3.org/2000/svg" xmlns:xlink="http://www.w3.org/1999/xlink" id="Group_9169" data-name="Group 9169" width="62.89" height="66.419" viewBox="0 0 62.89 66.419"><defs><linearGradient id="linear-gradient" x1="0.231" y1="0.821" x2="0.662" y2="0.293" gradientUnits="objectBoundingBox"><stop offset="0.001" stop-color="#fff0d5"></stop><stop offset="0.511" stop-color="#ffdfff"></stop><stop offset="1" stop-color="#d9ceff"></stop></linearGradient></defs><path id="Path_7732" data-name="Path 7732" d="M16.783,17.475C19.374,9.989,24.25-3,34.648.625c4.048,1.41,5.319,6.767,9.388,7.435,3.843.631,7.1-3.146,10.753-3.863,4.542-.89,9.349.3,11.075,4.732,2.065,5.3-4.021,11.252-2.55,16.094,2.427,7.986,11.4-5.25,13,7.638C78.56,50.7,58.569,82.8,45.1,56.4c-6.829-13.387-13.986-4-24.631-10.658-10.108-6.324-6.98-18.754-3.687-28.267Z" transform="translate(-13.599 0)" opacity="0.27" fill="url(#linear-gradient)"></path><g id="payment" transform="translate(6.155 16.49)"><path id="Path_7563" data-name="Path 7563" d="M41.615,100.1H1.734A1.734,1.734,0,0,1,0,98.364V72.355a1.734,1.734,0,0,1,1.734-1.734H41.615a1.734,1.734,0,0,1,1.734,1.734v26.01A1.734,1.734,0,0,1,41.615,100.1Z" transform="translate(0 -70.621)" fill="#fdb62f"></path><g id="Group_7752" data-name="Group 7752" transform="translate(5.202 6.069)"><path id="Path_7565" data-name="Path 7565" d="M60.768,139.348H53.832a.867.867,0,0,1-.867-.867v-5.2a.867.867,0,0,1,.867-.867h6.936a.867.867,0,0,1,.867.867v5.2A.867.867,0,0,1,60.768,139.348Z" transform="translate(-52.965 -132.412)" fill="#ffebc4"></path></g><g id="Group_7753" data-name="Group 7753" transform="translate(4.118 17.99)"><path id="Path_7566" data-name="Path 7566" d="M49.951,255.961H43.016a1.084,1.084,0,0,1,0-2.167h6.936a1.084,1.084,0,1,1,0,2.167Z" transform="translate(-41.932 -253.794)" fill="#fff"></path><path id="Path_7567" data-name="Path 7567" d="M70.759,308.927H43.016a1.084,1.084,0,0,1,0-2.167H70.759a1.084,1.084,0,1,1,0,2.167Z" transform="translate(-41.932 -301.558)" fill="#fff"></path></g><path id="Path_7569" data-name="Path 7569" d="M82.916,135.015H81.182v-2.6H79.448v6.936h1.734v-2.6h1.734a.867.867,0,0,0,0-1.734Z" transform="translate(-71.645 -126.345)" fill="#fdb62f"></path><ellipse id="Ellipse_318" data-name="Ellipse 318" cx="10.404" cy="10.404" rx="10.404" ry="10.404" transform="translate(29.478 15.606)" fill="#88b337"></ellipse><path id="Path_7574" data-name="Path 7574" d="M315.744,248.789a10.395,10.395,0,0,1-6.3-18.668,10.4,10.4,0,1,0,7.4,18.608A10.477,10.477,0,0,1,315.744,248.789Z" transform="translate(-270.66 -214.457)" fill="#6b962a"></path><path id="Path_7575" data-name="Path 7575" d="M338.661,299.074a1.079,1.079,0,0,1-.766-.318l-4.335-4.335a1.084,1.084,0,1,1,1.533-1.533l3.569,3.569,7.037-7.037a1.084,1.084,0,1,1,1.533,1.533l-7.8,7.8A1.081,1.081,0,0,1,338.661,299.074Z" transform="translate(-300.514 -267.646)" fill="#fff"></path></g><g id="Group_7768" data-name="Group 7768" transform="translate(49.703 7.159)"><path id="Path_7634" data-name="Path 7634" d="M434.136,43.483a1.051,1.051,0,0,1-.385-1.435l1.91-3.308a1.051,1.051,0,1,1,1.82,1.051l-1.91,3.308A1.051,1.051,0,0,1,434.136,43.483Z" transform="translate(-433.61 -38.214)" fill="#fac149"></path><path id="Path_7635" data-name="Path 7635" d="M459.45,77.528a1.051,1.051,0,0,1,.385-1.435l3.308-1.91A1.051,1.051,0,0,1,464.193,76l-3.308,1.91A1.051,1.051,0,0,1,459.45,77.528Z" transform="translate(-455.761 -69.096)" fill="#fac149"></path><path id="Path_7636" data-name="Path 7636" d="M473.334,125.25h-3.923a1.051,1.051,0,1,1,0-2.1h3.923a1.051,1.051,0,1,1,0,2.1Z" transform="translate(-463.563 -111.423)" fill="#fac149"></path></g></svg>