<svg xmlns="http://www.w3.org/2000/svg" xmlns:xlink="http://www.w3.org/1999/xlink" id="Group_7791" data-name="Group 7791" width="68.192" height="54.519" viewBox="0 0 68.192 54.519"><defs><linearGradient id="linear-gradient" x1="0.441" y1="0.5" x2="1.689" y2="0.5" gradientUnits="objectBoundingBox"><stop offset="0.001" stop-color="#fff0d5"></stop><stop offset="0.511" stop-color="#ffdfff"></stop><stop offset="1" stop-color="#d9ceff"></stop></linearGradient></defs><path id="Path_7768" data-name="Path 7768" d="M67.343,94.266a15.687,15.687,0,0,0-9.3-9.616A5.7,5.7,0,0,1,54.365,79.4q0-.077,0-.154A15.722,15.722,0,0,0,26,70.281,12.829,12.829,0,0,1,15.73,75.6q-.179,0-.36,0A16.012,16.012,0,0,0,0,91.109a15.724,15.724,0,0,0,30.489,5.615,3.218,3.218,0,0,1,3.9-1.967l.061.017a3.209,3.209,0,0,1,2.337,3.346,15.723,15.723,0,1,0,30.554-3.853Z" transform="translate(0 -60.55)" opacity="0.42" fill="url(#linear-gradient)"></path><g id="piggybank" transform="translate(5.215 9.087)"><path id="Path_7554" data-name="Path 7554" d="M448,244.833h4.1a1.641,1.641,0,0,0,1.641-1.641V238.27a1.641,1.641,0,0,0-1.641-1.641H448Z" transform="translate(-401.947 -218.776)" fill="#ff507d"></path><path id="Path_7555" data-name="Path 7555" d="M27.892,121.518H15.587A15.633,15.633,0,0,1,0,105.931H0A15.633,15.633,0,0,1,15.587,90.344H27.892a15.633,15.633,0,0,1,15.587,15.587h0A15.633,15.633,0,0,1,27.892,121.518Z" transform="translate(5.855 -85.617)" fill="#ff6991"></path><path id="Path_7556" data-name="Path 7556" d="M310.857,38.318v6.528a1.641,1.641,0,0,0,1.641,1.641h2.344a1.636,1.636,0,0,0,1.63-1.848c-.62-4.324-3.337-6.448-4.752-6.944A.654.654,0,0,0,310.857,38.318Z" transform="translate(-277.109 -37.658)" fill="#ff507d"></path><g id="Group_7751" data-name="Group 7751" transform="translate(0 7.188)"><path id="Path_7557" data-name="Path 7557" d="M372.219,212.483a.82.82,0,0,1-.768-.534,1.791,1.791,0,0,0-3.31,0,.82.82,0,1,1-1.537-.574,3.43,3.43,0,0,1,6.383,0,.821.821,0,0,1-.768,1.108Z" transform="translate(-327.807 -200.997)" fill="#d23c69"></path><path id="Path_7628" data-name="Path 7628" d="M374.131,213.59a1.1,1.1,0,0,1-1.027-.714,2.395,2.395,0,0,0-4.427,0,1.1,1.1,0,1,1-2.055-.767,4.587,4.587,0,0,1,8.536,0,1.1,1.1,0,0,1-1.027,1.481Z" transform="translate(-366.552 -199.89)" fill="#d23c69"></path><path id="Path_7558" data-name="Path 7558" d="M149.448,119.413H137.963a.82.82,0,0,1-.82-.82h0a.82.82,0,0,1,.82-.82h11.485a.82.82,0,0,1,.82.82h0A.82.82,0,0,1,149.448,119.413Z" transform="translate(-118.982 -117.772)" fill="#d23c69"></path></g><path id="Path_7559" data-name="Path 7559" d="M164.013,52.834a4.922,4.922,0,1,0-7.323,0Z" transform="translate(-135.628 -44.004)" fill="#fac149"></path><path id="Path_7561" data-name="Path 7561" d="M39.534,128.151a15.433,15.433,0,0,1-5.9,1.174H31.853a4.032,4.032,0,0,0-4.029-4.1h0a4.034,4.034,0,0,0-4.034,4.034v.068H21.329A15.633,15.633,0,0,1,5.743,113.738h0a15.5,15.5,0,0,1,3.945-10.311A15.637,15.637,0,0,0,0,117.84H0c0,8.842,4.511,15.992,6.053,18.178a1.631,1.631,0,0,0,1.338.69h3.273a1.641,1.641,0,0,0,1.641-1.641v-2a15.475,15.475,0,0,0,3.281.357h8.2v1.641a1.641,1.641,0,0,0,1.641,1.641h3.6a1.641,1.641,0,0,0,1.6-1.3l.5-2.33A15.647,15.647,0,0,0,39.534,128.151Z" transform="translate(5.855 -97.526)" fill="#ff507d"></path><path id="Path_7769" data-name="Path 7769" d="M155.34,188.631V187.4c.45.078.733.285.733.434a.366.366,0,0,0,.733,0c0-.6-.614-1.076-1.476-1.178a.359.359,0,0,0-.712,0c-.862.1-1.476.575-1.476,1.178,0,.837.8,1.158,1.465,1.35v1.227c-.45-.078-.733-.285-.733-.434a.366.366,0,0,0-.733,0c0,.6.614,1.076,1.476,1.178a.359.359,0,0,0,.712,0c.862-.1,1.476-.575,1.476-1.178C156.806,189.144,156,188.823,155.34,188.631Zm-1.465-.793c0-.149.283-.356.733-.434v1.012C154.073,188.237,153.875,188.074,153.875,187.838Zm1.465,2.577V189.4c.534.18.733.343.733.579C156.073,190.13,155.79,190.337,155.34,190.415Z" transform="translate(-130.183 -183.983)" fill="#fff"></path></g><g id="Group_7780" data-name="Group 7780" transform="translate(25.489 23.516)" opacity="0.87"><path id="Path_7771" data-name="Path 7771" d="M4.826-4.838a9.474,9.474,0,0,0-.332-2.723,5.692,5.692,0,0,0-.93-1.91A3.975,3.975,0,0,0,2.152-10.6a4.052,4.052,0,0,0-1.744-.365,4.052,4.052,0,0,0-1.744.365A3.872,3.872,0,0,0-2.713-9.471a5.4,5.4,0,0,0-.93,1.91,10.1,10.1,0,0,0-.332,2.723A10.225,10.225,0,0,0-3.643-2.1a5.4,5.4,0,0,0,.93,1.91A3.872,3.872,0,0,0-1.335.941a4.052,4.052,0,0,0,1.744.365A4.052,4.052,0,0,0,2.152.941,3.975,3.975,0,0,0,3.564-.188a5.692,5.692,0,0,0,.93-1.91A9.6,9.6,0,0,0,4.826-4.838Zm-2.125,0a9.861,9.861,0,0,1-.183,2.159A4.523,4.523,0,0,1,2-1.3a1.818,1.818,0,0,1-.731.7,2.011,2.011,0,0,1-.863.216A1.885,1.885,0,0,1-.438-.6a1.984,1.984,0,0,1-.731-.714,4.427,4.427,0,0,1-.5-1.362,9.741,9.741,0,0,1-.2-2.159A9.741,9.741,0,0,1-1.667-7a4.427,4.427,0,0,1,.5-1.362,1.928,1.928,0,0,1,.731-.7,1.868,1.868,0,0,1,.847-.2,1.99,1.99,0,0,1,.863.2,1.818,1.818,0,0,1,.731.7A4.407,4.407,0,0,1,2.518-7,9.861,9.861,0,0,1,2.7-4.838Z" transform="translate(3.975 10.965)" fill="#fff"></path><path id="Path_7770" data-name="Path 7770" d="M-2.2.949A.3.3,0,0,0-1.954.815L2.278-5.623a.3.3,0,0,0-.085-.413.3.3,0,0,0-.413.085L-2.453.487A.3.3,0,0,0-2.367.9.3.3,0,0,0-2.2.949ZM1.823-1.733A1.04,1.04,0,0,1,2.862-.695,1.04,1.04,0,0,1,1.823.343,1.04,1.04,0,0,1,.785-.695,1.04,1.04,0,0,1,1.823-1.733Zm0,2.673A1.636,1.636,0,0,0,3.458-.695,1.636,1.636,0,0,0,1.823-2.329,1.636,1.636,0,0,0,.189-.695,1.636,1.636,0,0,0,1.823.94ZM-1.942-5.489A1.04,1.04,0,0,1-.9-4.45,1.04,1.04,0,0,1-1.942-3.412,1.04,1.04,0,0,1-2.98-4.45,1.04,1.04,0,0,1-1.942-5.489Zm0,2.673A1.636,1.636,0,0,0-.307-4.45,1.636,1.636,0,0,0-1.942-6.085,1.636,1.636,0,0,0-3.576-4.45,1.636,1.636,0,0,0-1.942-2.816Z" transform="translate(12.874 7.059)" fill="#fff"></path></g><path id="Subtraction_5" data-name="Subtraction 5" d="M4.286,8.572A4.286,4.286,0,1,1,8.572,4.286,4.291,4.291,0,0,1,4.286,8.572ZM3.24,5.7a.506.506,0,1,0,0,1.012h.506v.034a.506.506,0,0,0,1.012,0V6.71a1.449,1.449,0,0,0,0-2.892V2.936h.371a.506.506,0,0,0,0-1.012H4.758V1.89a.506.506,0,0,0-1.012,0v.036a1.45,1.45,0,0,0,0,2.9V5.7ZM4.758,5.69h0V4.839a.438.438,0,0,1,0,.851ZM3.746,3.811h0a.442.442,0,0,1-.4-.436.436.436,0,0,1,.4-.436v.872Z" transform="translate(16.901 0)" fill="#ff6991"></path></svg>